<svg width="14" height="14" viewBox="0 0 14 14" fill="none" xmlns="http://www.w3.org/2000/svg">
<path d="M9.40359 12.342L9.40368 12.9006C9.40372 13.1453 9.20228 13.3454 8.95605 13.3454L4.47905 13.3447C4.23282 13.3446 4.03132 13.1444 4.03129 12.8998L4.0312 12.3411C1.66003 11.3106 0.00138462 8.96225 0.000962066 6.22718C0.000924133 5.98166 0.201463 5.78242 0.448593 5.78246L12.9842 5.78443C13.2313 5.78447 13.4319 5.98377 13.4319 6.2293C13.4324 8.96437 11.7744 11.3122 9.40359 12.342ZM12.5363 4.89476C12.5361 3.2241 11.2102 1.86458 9.54746 1.78781C9.04543 0.733117 7.96771 0.00125324 6.71549 0.00105628C5.46328 0.000859317 4.38578 0.732384 3.88407 1.78692C2.22132 1.86317 0.895896 3.22226 0.896155 4.89293L0.896223 5.33773L12.5364 5.33956L12.5363 4.89476Z" fill="currentColor" stroke="white" stroke-width="0.00153333"/>
</svg>
