<svg width="20" height="20" viewBox="0 0 20 20" fill="none" xmlns="http://www.w3.org/2000/svg">
<g clip-path="url(#clip0_64_3895)">
<path d="M2.00011 18.43C3.51011 19.79 13.6401 13.76 15.1401 11.22C15.8601 9.99995 15.0101 8.20995 13.6201 6.77995C15.2001 5.72995 16.5901 8.99995 17.9101 8.30995C18.5101 7.98995 18.9001 6.99995 18.6101 6.38995C18.0901 5.30995 16.3601 5.30995 15.1901 5.17995C16.0201 4.97995 18.0101 4.12995 18.0501 2.92995C18.0901 2.00995 16.9201 0.959954 16.0001 1.06995C14.7901 1.20995 14.3501 2.94995 13.9401 4.06995C13.8901 3.35995 13.7401 1.79995 12.9601 1.11995C11.9201 0.209953 10.6701 1.06995 10.6401 2.16995C10.6001 3.49995 13.4601 4.23995 12.5601 5.83995C11.0401 4.66995 9.25011 4.02995 8.10011 4.69995C7.61012 5.00995 7.05011 5.60995 6.47011 6.38995C7.36011 7.32995 8.59011 8.45995 9.56011 9.10995C9.76011 9.24995 9.82011 9.52995 9.67011 9.72995C9.53011 9.93995 9.25011 9.98995 9.05011 9.84995C8.06011 9.17995 6.85011 8.06995 5.95011 7.13995C5.50011 7.80995 5.04011 8.56995 4.61011 9.36995C5.46011 10.23 6.54011 11.2 7.40011 11.78C7.60011 11.92 7.65011 12.2 7.51011 12.4C7.37011 12.61 7.09011 12.66 6.88011 12.52C6.03011 11.94 5.02011 11.04 4.17011 10.2C2.40011 13.69 1.10011 17.63 2.00011 18.43Z" fill="currentColor"/>
</g>
<defs>
<clipPath id="clip0_64_3895">
<rect width="20" height="20" fill="white"/>
</clipPath>
</defs>
</svg>
