<svg width="30" height="30" viewBox="0 0 30 30" fill="none" xmlns="http://www.w3.org/2000/svg">
<path d="M25.7043 0.403089C26.2417 -0.134363 27.1132 -0.134363 27.6506 0.403089L29.5969 2.34934C30.1344 2.88679 30.1344 3.75815 29.5969 4.29561C29.0594 4.83304 28.1881 4.83304 27.6506 4.29561L25.7043 2.34934C25.1669 1.8119 25.1669 0.940527 25.7043 0.403089Z" fill="black"/>
<path d="M20.8386 1.37598C21.376 0.838541 22.2474 0.838541 22.7848 1.37598L28.6236 7.21475C29.1611 7.7522 29.1611 8.62356 28.6236 9.161C28.0861 9.69845 27.2147 9.69845 26.6773 9.161L20.8386 3.32223C20.3012 2.78479 20.3012 1.91342 20.8386 1.37598Z" fill="black"/>
<path d="M21.8119 10.1344L10.1345 21.8118L13.0539 24.7311C13.5913 25.2685 13.5913 26.14 13.0539 26.6774C12.5163 27.2148 11.645 27.2148 11.1075 26.6774L3.32252 18.8923C2.78507 18.3549 2.78507 17.4836 3.32251 16.946C3.85996 16.4086 4.73132 16.4086 5.26878 16.946L8.18824 19.8655L19.8657 8.18812L16.9462 5.26865C16.4088 4.73121 16.4088 3.85984 16.9462 3.3224C17.4836 2.78495 18.355 2.78495 18.8924 3.3224L26.6775 11.1074C27.2149 11.6449 27.2149 12.5163 26.6775 13.0537C26.1401 13.5911 25.2687 13.5911 24.7313 13.0537L21.8119 10.1344Z" fill="black"/>
<path d="M3.32224 20.8388C2.7848 20.3014 1.91343 20.3014 1.37599 20.8388C0.838537 21.3764 0.838537 22.2477 1.37599 22.7852L7.21476 28.6239C7.7522 29.1613 8.62357 29.1613 9.16101 28.6239C9.69846 28.0865 9.69846 27.2151 9.16101 26.6777L3.32224 20.8388Z" fill="black"/>
<path d="M2.34934 25.7043C1.8119 25.1669 0.940527 25.1669 0.403089 25.7043C-0.134363 26.2419 -0.134363 27.1132 0.403089 27.6507L2.34934 29.5969C2.88679 30.1344 3.75815 30.1344 4.29559 29.5969C4.83304 29.0594 4.83304 28.1881 4.29559 27.6507L2.34934 25.7043Z" fill="black"/>
</svg>
