<svg width="25" height="29" viewBox="0 0 25 29" fill="none" xmlns="http://www.w3.org/2000/svg">
<path d="M9.33536 0.130476C8.67822 0.130275 8.23564 0.641721 8.23583 1.27195L8.23745 6.71063C8.23764 7.3291 7.91361 7.62483 7.41669 7.62468C6.9628 7.62454 6.69494 7.25702 6.69481 6.82077L6.66837 1.17104C6.66816 0.458151 6.03402 0.00184446 5.44567 0.00166461C4.85709 0.0014847 4.2235 0.457404 4.22372 1.17029L4.22541 6.82001C4.22554 7.25632 3.93287 7.62362 3.47892 7.62348C2.98261 7.62333 2.65819 7.32739 2.658 6.70892L2.65638 1.27025C2.65619 0.640015 2.21324 0.128298 1.5561 0.128098C0.898461 0.128991 0.548371 0.684282 0.477234 1.22899C0.406097 1.77419 0.0423448 5.66784 0.00311858 8.15642C-0.0366649 10.6456 1.74448 12.102 2.7591 12.5647C3.45279 12.8811 3.95504 13.5611 3.95529 14.3787L3.54439 28.009L7.36353 28.0101L6.94447 14.3796C6.94423 13.562 7.44574 12.8824 8.1393 12.5664C9.15386 12.1042 10.9342 10.649 10.8931 8.15975C10.8522 5.67114 10.4866 1.77728 10.4146 1.23203C10.3429 0.687276 9.99278 0.131771 9.33536 0.130476Z" fill="currentColor"/>
<path d="M19.0942 0.221025C16.452 0.220217 13.6498 2.98569 13.6511 7.33118C13.6518 9.82038 15.5695 11.8418 16.4078 12.5688C17.2276 13.2804 17.6038 13.5652 17.604 14.3828L17.1931 28.0131L21.0123 28.0142L20.5929 14.3837C20.5927 13.5662 20.9692 13.2816 21.7886 12.5705C22.6254 11.8439 24.5421 9.82371 24.5414 7.33451C24.5401 2.98902 21.7365 0.221833 19.0942 0.221025Z" fill="currentColor"/>
</svg>
