<?xml version="1.0" encoding="utf-8"?>

<!-- Uploaded to: SVG Repo, www.svgrepo.com, Generator: SVG Repo Mixer Tools -->
<svg width="32px" height="32px" viewBox="-4.88 0 86.917 86.917" xmlns="http://www.w3.org/2000/svg">
  <g id="oven_baker_line" data-name="oven baker line" transform="translate(-368.118 -359.595)">
    <rect id="Rectangle_8" data-name="Rectangle 8" width="73.106" height="82.865" rx="6.082" transform="translate(370.144 361.621)" fill="none" stroke="currentColor" stroke-linecap="round" stroke-linejoin="round" stroke-width="4.051"/>
    <rect id="Rectangle_9" data-name="Rectangle 9" width="50.507" height="39.036" rx="1.521" transform="translate(381.444 393.295)" fill="none" stroke="currentColor" stroke-linecap="round" stroke-linejoin="round" stroke-width="4.051"/>
    <line id="Line_29" data-name="Line 29" x2="71.355" transform="translate(370.837 382.399)" fill="none" stroke="currentColor" stroke-linecap="round" stroke-linejoin="round" stroke-width="4.051"/>
    <line id="Line_30" data-name="Line 30" x2="1.056" transform="translate(378.437 371.423)" fill="none" stroke="currentColor" stroke-linecap="round" stroke-linejoin="round" stroke-width="4.051"/>
    <line id="Line_31" data-name="Line 31" x2="1.056" transform="translate(390.787 371.423)" fill="none" stroke="currentColor" stroke-linecap="round" stroke-linejoin="round" stroke-width="4.051"/>
    <line id="Line_32" data-name="Line 32" x2="1.056" transform="translate(403.137 371.423)" fill="none" stroke="currentColor" stroke-linecap="round" stroke-linejoin="round" stroke-width="4.051"/>
    <line id="Line_33" data-name="Line 33" x2="1.056" transform="translate(415.487 371.423)" fill="none" stroke="currentColor" stroke-linecap="round" stroke-linejoin="round" stroke-width="4.051"/>
    <line id="Line_34" data-name="Line 34" x2="1.056" transform="translate(434.593 371.423)" fill="none" stroke="currentColor" stroke-linecap="round" stroke-linejoin="round" stroke-width="4.051"/>
    <path id="Path_25" data-name="Path 25" d="M402.293,401.929a7.183,7.183,0,0,0-3.167,5.594c0,3.589,4.011,4.539,4.011,9.606a6.358,6.358,0,0,1-4.011,6.333" fill="none" stroke="currentColor" stroke-linecap="round" stroke-linejoin="round" stroke-width="4.051"/>
    <path id="Path_26" data-name="Path 26" d="M414.22,401.929a7.184,7.184,0,0,0-3.166,5.594c0,3.589,4.011,4.539,4.011,9.606a6.358,6.358,0,0,1-4.011,6.333" fill="none" stroke="currentColor" stroke-linecap="round" stroke-linejoin="round" stroke-width="4.051"/>
  </g>
</svg>